<?xml version="1.0" encoding="UTF-8" standalone="no"?>
<svg
   xmlns:dc="http://purl.org/dc/elements/1.1/"
   xmlns:cc="http://creativecommons.org/ns#"
   xmlns:rdf="http://www.w3.org/1999/02/22-rdf-syntax-ns#"
   xmlns:svg="http://www.w3.org/2000/svg"
   xmlns="http://www.w3.org/2000/svg"
   viewBox="0 0 359.0625 210.925"
   height="210.925"
   width="359.0625"
   xml:space="preserve"
   version="1.1"
   id="svg2"><metadata
     id="metadata8"><rdf:RDF><cc:Work
         rdf:about=""><dc:format>image/svg+xml</dc:format><dc:type
           rdf:resource="http://purl.org/dc/dcmitype/StillImage" /><dc:title></dc:title></cc:Work></rdf:RDF></metadata><defs
     id="defs6" /><g
     transform="matrix(1.25,0,0,-1.25,0,210.925)"
     id="g10"><g
       transform="scale(0.1,0.1)"
       id="g12"><path
         id="path14"
         style="fill:#ffffff;fill-opacity:1;fill-rule:nonzero;stroke:#287ac8;stroke-opacity:1"
         d="m 1785.2,1681.54 c -28.64,0 -50.12,-23.44 -50.12,-46.19 l 0,-366.32 c 0,-35.15 28.63,-46.2 60.53,-46.2 l 172.42,0 c 24.7,0 45.52,18.87 45.52,42.3 0,22.11 -21.46,40.33 -45.52,40.33 l -141.86,0 0,106.06 122.98,0 c 25.38,0 44.89,18.21 44.89,41.65 0,23.41 -22.13,40.98 -44.89,40.98 l -122.98,0 0,104.75 135.33,0 c 24.74,0 45.55,16.92 45.55,40.35 0,22.77 -20.81,42.29 -45.55,42.29 l -176.3,0" /><path
         id="path16"
         style="fill:#ffffff;fill-opacity:1;fill-rule:nonzero;stroke:#287ac8;stroke-opacity:1"
         d="m 1576.45,1687.4 c -25.4,0 -44.91,-20.19 -44.91,-42.95 l 0,-265.46 c 0,-46.2 -22.77,-79.38 -71.57,-79.38 -49.45,0 -72.22,32.53 -72.22,79.38 l 0,265.46 c 0,23.43 -20.82,42.95 -44.9,42.95 -26.01,0 -46.19,-18.22 -46.19,-42.95 l 0,-265.46 c 0,-93.04 58.56,-162.01 163.31,-162.01 102.8,0 163.31,68.32 163.31,162.01 l 0,265.46 c 0,22.76 -20.15,42.95 -46.83,42.95" /><path
         id="path18"
         style="fill:#ffffff;fill-opacity:1;fill-rule:nonzero;stroke:#287ac8;stroke-opacity:1"
         d="m 967.18,1687.4 c -25.379,0 -45.539,-19.52 -45.539,-41.64 l 0,-378.03 c 0,-25.38 22.769,-44.9 48.789,-44.9 l 183.49,0 c 24.72,0 44.24,18.22 44.24,41.64 0,22.77 -20.82,40.34 -44.24,40.34 l -141.19,0 0,340.95 c 0,22.12 -20.832,41.64 -45.55,41.64" /><path
         id="path20"
         style="fill:#ffffff;fill-opacity:1;fill-rule:nonzero;stroke:#287ac8;stroke-opacity:1"
         d="m 535.277,1681.54 c -27.316,0 -50.746,-20.18 -50.746,-46.84 l 0,-365.02 c 0,-25.38 22.117,-46.85 50.746,-46.85 l 107.364,0 c 100.203,0 161.367,60.52 161.367,136.64 0,56.61 -40.348,85.88 -80.688,102.15 39.039,18.86 68.321,46.84 68.321,92.39 0,65.07 -48.797,127.53 -146.391,127.53 l -109.973,0" /><path
         id="path22"
         style="fill:#ffffff;fill-opacity:1;fill-rule:nonzero;stroke:#287ac8;stroke-opacity:1"
         d="M 292.141,1619.72 32.5313,1494.8 C 14.3125,1485.69 0,1477.89 0,1451.85 c 0,-25.36 14.9688,-33.83 33.1797,-42.94 L 292.141,1284.64 c 6.511,-3.26 18.218,-4.55 20.828,-4.55 26.672,0 44.242,18.86 44.242,42.29 0,14.32 -11.723,29.93 -28.633,37.73 l -198.445,91.74 198.445,91.76 c 16.262,7.79 28.633,23.42 28.633,38.38 0,22.76 -17.57,42.28 -44.242,42.28 -3.91,0 -14.973,-1.29 -20.828,-4.55" /><path
         id="path24"
         style="fill:#ffffff;fill-opacity:1;fill-rule:nonzero;stroke:#287ac8;stroke-opacity:1"
         d="m 2571.86,959.059 c 0,-94.356 68.96,-115.809 132.73,-135.34 17.57,-5.852 33.84,-11.699 47.5,-17.559 11.71,-5.207 26.68,-14.972 26.68,-44.25 0,-35.781 -22.77,-55.957 -67.68,-55.957 -27.96,0 -48.79,7.805 -64.41,13.008 -12.36,4.562 -22.77,7.812 -32.53,7.812 -24.08,0 -42.94,-20.164 -42.94,-40.992 0,-45.543 91.09,-62.461 139.24,-62.461 93.05,0 162.01,52.059 162.01,142.496 0,92.383 -69.62,114.512 -133.38,134.68 -14.31,3.906 -29.94,9.109 -46.85,17.567 -11.06,5.207 -27.33,14.96 -27.33,43.593 0,38.394 29.92,49.454 61.81,49.454 22.78,0 37.09,-5.22 49.46,-9.77 11.06,-3.246 20.17,-7.152 31.88,-7.152 28.62,0 45.54,19.532 45.54,40.992 0,48.81 -92.39,58.56 -130.78,58.56 -92.39,0 -150.95,-50.76 -150.95,-134.681" /><path
         id="path26"
         style="fill:#ffffff;fill-opacity:1;fill-rule:nonzero;stroke:#287ac8;stroke-opacity:1"
         d="m 2177.77,1087.88 c -26.68,0 -49.45,-21.47 -49.45,-46.85 l 0,-374.76 c 0,-23.43 20.82,-42.95 44.88,-42.95 24.74,0 46.21,20.16 46.21,42.95 l 0,149 44.24,0 109.31,-171.122 c 8.47,-13.019 22.12,-20.179 38.39,-20.179 29.28,0 61.17,34.48 39.69,67.015 l -89.15,134.032 c 55.97,18.234 90.45,60.519 90.45,124.933 0,68.321 -39.03,137.931 -161.36,137.931 l -113.21,0" /><path
         id="path28"
         style="fill:#ffffff;fill-opacity:1;fill-rule:nonzero;stroke:#287ac8;stroke-opacity:1"
         d="m 1783.8,1087.88 c -28.62,0 -50.09,-23.41 -50.09,-46.19 l 0,-366.311 c 0,-35.141 28.61,-46.199 60.5,-46.199 l 172.42,0 c 24.74,0 45.55,18.859 45.55,42.289 0,22.121 -21.48,40.336 -45.55,40.336 l -141.84,0 0,106.062 122.98,0 c 25.37,0 44.89,18.215 44.89,41.641 0,23.43 -22.11,40.988 -44.89,40.988 l -122.98,0 0,104.754 135.35,0 c 24.7,0 45.54,16.92 45.54,40.34 0,22.78 -20.84,42.29 -45.54,42.29 l -176.34,0" /><path
         id="path30"
         style="fill:#ffffff;fill-opacity:1;fill-rule:nonzero;stroke:#287ac8;stroke-opacity:1"
         d="m 891.773,923.27 0,-128.821 c 0,-102.812 52.043,-170.48 165.917,-170.48 68.97,0 134.68,31.89 134.68,69.621 0,20.82 -18.22,39.043 -42.94,39.043 -14.97,0 -19.52,-4.559 -27.98,-9.766 l -6.5,-3.906 c -16.27,-10.398 -33.19,-15.613 -54.01,-15.613 -58.56,0 -78.081,35.136 -78.081,91.101 l 0,128.821 c 0,55.957 19.521,91.08 78.081,91.08 20.82,0 37.74,-5.19 54.01,-15.6 l 6.5,-3.91 c 8.46,-5.203 13.01,-9.754 27.98,-9.754 24.72,0 42.94,18.214 42.94,39.044 0,37.73 -65.71,69.61 -134.68,69.61 -113.874,0 -165.917,-67.67 -165.917,-170.47" /><path
         id="path32"
         style="fill:#ffffff;fill-opacity:1;fill-rule:nonzero;stroke:#287ac8;stroke-opacity:1"
         d="M 563.531,1049.5 436.641,679.27 c -1.289,-3.25 -1.938,-11.059 -1.938,-14.301 0,-24.731 21.469,-41.649 46.836,-41.649 15.617,0 36.441,11.711 42.941,30.571 0,0 12.829,42.394 28.879,96.109 l 124.934,0 c 16.098,-53.723 29.027,-96.109 29.027,-96.109 6.508,-18.2 27.321,-30.571 44.239,-30.571 26.683,0 46.847,16.918 46.847,41.649 0,3.242 -0.648,11.051 -1.945,14.301 L 669.578,1049.5 c -9.109,26.02 -22.117,44.24 -53.348,44.24 -31.23,0 -44.238,-18.86 -52.699,-44.24" /><path
         id="path34"
         style="fill:#ffffff;fill-opacity:1;fill-rule:nonzero;stroke:#287ac8;stroke-opacity:1"
         d="m 229.68,1052.1 0,-151.604 -138.5902,0 0,151.604 c 0,22.11 -20.8203,41.64 -45.539,41.64 C 20.1719,1093.74 0,1074.21 0,1052.1 L 0,665.602 C 0,642.84 20.1719,623.32 45.5508,623.32 c 24.7187,0 45.539,19.52 45.539,42.282 l 0,151.613 138.5902,0 0,-151.613 c 0,-22.762 21.472,-42.282 45.55,-42.282 24.719,0 45.54,19.52 45.54,42.282 l 0,386.498 c 0,22.11 -21.469,41.64 -45.54,41.64 -24.078,0 -45.55,-19.53 -45.55,-41.64" /><path
         id="path36"
         style="fill:#ffffff;fill-opacity:1;fill-rule:nonzero;stroke:#287ac8;stroke-opacity:1"
         d="m 2511.57,388.379 c 0,-14.969 12.36,-30.59 28.63,-38.399 L 2738.65,258.25 2540.2,166.5 c -16.92,-7.801 -28.63,-23.43 -28.63,-37.738 0,-23.41 17.56,-42.2932 44.24,-42.2932 2.6,0 14.33,1.3125 20.83,4.5507 l 258.95,124.2815 c 18.22,9.109 33.19,17.57 33.19,42.949 0,26.02 -14.33,33.832 -32.54,42.93 l -259.6,124.929 c -5.86,3.243 -16.91,4.563 -20.83,4.563 -26.68,0 -44.24,-19.524 -44.24,-42.293" /><path
         id="path38"
         style="fill:#ffffff;fill-opacity:1;fill-rule:nonzero;stroke:#287ac8;stroke-opacity:1"
         d="M 2325.55,495.078 2155.72,47.4297 C 2148.57,26.6094 2167.44,5.12891 2190.87,0.578125 2193.3,0.210938 2195.72,0.0117188 2198.14,0 l 0.55,0 c 18.02,0.109375 34.81,10.2813 41.63,27.9219 l 166.57,438.5191 c 1.29,2.61 2.6,5.868 3.25,9.778 1.95,20.16 -13.68,41.633 -35.78,45.543 -2.91,0.539 -5.81,0.808 -8.66,0.808 -17.56,0 -33.43,-10.129 -40.15,-27.492" /><path
         id="path40"
         style="fill:#ffffff;fill-opacity:1;fill-rule:nonzero;stroke:#287ac8;stroke-opacity:1"
         d="m 1768.96,487.93 c -27.33,0 -50.76,-20.168 -50.76,-46.852 l 0,-365.0194 c 0,-25.3672 22.13,-46.8477 50.76,-46.8477 l 107.36,0 c 100.2,0 161.36,60.5079 161.36,136.6411 0,56.609 -40.34,85.886 -80.67,102.148 39.03,18.879 68.3,46.859 68.3,92.398 0,65.071 -48.79,127.532 -146.38,127.532 l -109.97,0" /><path
         id="path42"
         style="fill:#ffffff;fill-opacity:1;fill-rule:nonzero;stroke:#287ac8;stroke-opacity:1"
         d="m 1493.41,450.84 0,-265.469 c 0,-46.191 -22.77,-79.391 -71.57,-79.391 -49.45,0 -72.22,32.54 -72.22,79.391 l 0,265.469 c 0,23.422 -20.82,42.941 -44.9,42.941 -26.02,0 -46.2,-18.23 -46.2,-42.941 l 0,-265.469 c 0,-93.0429 58.57,-162.0116 163.32,-162.0116 102.8,0 163.32,68.3125 163.32,162.0116 l 0,265.469 c 0,22.769 -20.18,42.941 -46.85,42.941 -25.37,0 -44.9,-20.172 -44.9,-42.941" /><path
         id="path44"
         style="fill:#ffffff;fill-opacity:1;fill-rule:nonzero;stroke:#287ac8;stroke-opacity:1"
         d="m 883.5,452.141 0,-378.0316 c 0,-25.3711 22.77,-44.8985 48.801,-44.8985 l 183.479,0 c 24.73,0 44.25,18.2188 44.25,41.6485 0,22.7695 -20.83,40.3396 -44.25,40.3396 l -141.19,0 0,340.942 c 0,22.121 -20.82,41.64 -45.551,41.64 -25.367,0 -45.539,-19.519 -45.539,-41.64" /><path
         id="path46"
         style="fill:#ffffff;fill-opacity:1;fill-rule:nonzero;stroke:#287ac8;stroke-opacity:1"
         d="m 466.184,323.309 0,-128.829 c 0,-102.8081 52.046,-170.4683 165.918,-170.4683 68.957,0 134.679,31.8789 134.679,69.6172 0,20.8201 -18.211,39.0311 -42.953,39.0311 -14.945,0 -19.508,-4.558 -27.969,-9.75 l -6.5,-3.898 c -16.277,-10.422 -33.187,-15.621 -54.007,-15.621 -58.559,0 -78.082,35.129 -78.082,91.089 l 0,128.829 c 0,55.961 19.523,91.101 78.082,91.101 20.82,0 37.73,-5.219 54.007,-15.629 l 6.5,-3.902 c 8.461,-5.207 13.024,-9.77 27.969,-9.77 24.742,0 42.953,18.231 42.953,39.051 0,37.738 -65.722,69.621 -134.679,69.621 -113.872,0 -165.918,-67.672 -165.918,-170.472" /><path
         id="path48"
         style="fill:#ffffff;fill-opacity:1;fill-rule:nonzero;stroke:#287ac8;stroke-opacity:1"
         d="m 1529,1074.88 -128.82,-146.407 0,123.627 c 0,22.11 -20.82,41.64 -45.54,41.64 -25.38,0 -45.55,-19.53 -45.55,-41.64 l 0,-386.498 c 0,-22.762 20.17,-42.282 45.55,-42.282 24.72,0 45.54,19.52 45.54,42.282 l 0,132.746 11.71,13.007 126.24,-169.164 c 9.74,-13.011 22.76,-18.871 37.72,-18.871 27.99,0 44.25,24.719 44.25,43.602 0,6.5 -0.65,13.648 -7.16,22.121 l -142.49,188.687 129.48,146.4 c 10.41,11.71 11.07,18.21 11.07,27.97 0,22.78 -25.37,41.64 -44.91,41.64 -14.31,0 -29.27,-9.1 -37.09,-18.86" /></g></g></svg>